<?xml version="1.0" encoding="UTF-8"?><svg id="Layer_1" xmlns="http://www.w3.org/2000/svg" viewBox="0 0 16 16"><defs><style>.cls-1{fill:#fff;}.cls-2{fill:#7091e6;}</style></defs><rect class="cls-2" width="16" height="16" rx="2" ry="2"/><g><path class="cls-1" d="M1.23,11.5V4.5h3.19c.76,0,1.43,.15,2.01,.44,.58,.29,1.03,.7,1.36,1.22,.33,.52,.49,1.14,.49,1.85s-.16,1.32-.49,1.85c-.33,.52-.78,.93-1.36,1.22-.58,.29-1.25,.44-2.01,.44H1.23Zm1.63-1.32h1.47c.47,0,.87-.09,1.22-.26,.34-.18,.61-.43,.8-.76,.19-.33,.29-.72,.29-1.16s-.1-.83-.29-1.16c-.19-.33-.46-.58-.8-.76-.34-.18-.75-.27-1.22-.27h-1.47v4.37Z"/><path class="cls-1" d="M11.81,11.62c-.56,0-1.1-.08-1.62-.23s-.93-.34-1.25-.59l.55-1.22c.29,.21,.65,.39,1.06,.53s.83,.21,1.25,.21c.32,0,.58-.03,.78-.1,.2-.07,.34-.16,.44-.26,.09-.11,.14-.24,.14-.39,0-.19-.07-.34-.22-.45-.15-.11-.34-.2-.59-.27s-.51-.14-.79-.2-.58-.14-.87-.23-.56-.21-.8-.36c-.24-.15-.44-.35-.58-.59s-.22-.55-.22-.92c0-.4,.11-.77,.32-1.1,.21-.33,.54-.59,.98-.79s.99-.3,1.65-.3c.44,0,.88,.05,1.31,.16,.43,.11,.81,.26,1.13,.46l-.51,1.22c-.31-.18-.64-.32-.97-.41-.33-.09-.65-.14-.96-.14s-.58,.04-.77,.1c-.19,.07-.34,.17-.43,.29s-.13,.25-.13,.4c0,.19,.07,.34,.22,.45,.15,.11,.34,.2,.58,.27s.51,.13,.8,.19,.58,.14,.87,.23c.29,.09,.55,.21,.79,.36s.44,.34,.59,.58c.15,.24,.23,.55,.23,.91,0,.39-.11,.75-.33,1.08s-.55,.59-.99,.79c-.44,.2-.99,.3-1.65,.3Z"/></g></svg>