<svg width="112" height="26" viewBox="0 0 112 26" fill="none" xmlns="http://www.w3.org/2000/svg">
<rect x="12.7279" width="18" height="18" transform="rotate(45 12.7279 0)" fill="#7091E6"/>
<path d="M40.823 18.18C40.013 18.18 39.258 18.05 38.558 17.79C37.868 17.52 37.268 17.14 36.758 16.65C36.248 16.16 35.848 15.585 35.558 14.925C35.278 14.265 35.138 13.54 35.138 12.75C35.138 11.96 35.278 11.235 35.558 10.575C35.848 9.915 36.248 9.34 36.758 8.85C37.278 8.36 37.883 7.985 38.573 7.725C39.263 7.455 40.018 7.32 40.838 7.32C41.748 7.32 42.568 7.48 43.298 7.8C44.038 8.11 44.658 8.57 45.158 9.18L43.598 10.62C43.238 10.21 42.838 9.905 42.398 9.705C41.958 9.495 41.478 9.39 40.958 9.39C40.468 9.39 40.018 9.47 39.608 9.63C39.198 9.79 38.843 10.02 38.543 10.32C38.243 10.62 38.008 10.975 37.838 11.385C37.678 11.795 37.598 12.25 37.598 12.75C37.598 13.25 37.678 13.705 37.838 14.115C38.008 14.525 38.243 14.88 38.543 15.18C38.843 15.48 39.198 15.71 39.608 15.87C40.018 16.03 40.468 16.11 40.958 16.11C41.478 16.11 41.958 16.01 42.398 15.81C42.838 15.6 43.238 15.285 43.598 14.865L45.158 16.305C44.658 16.915 44.038 17.38 43.298 17.7C42.568 18.02 41.743 18.18 40.823 18.18ZM51.6792 18.18C50.8492 18.18 50.0792 18.045 49.3692 17.775C48.6692 17.505 48.0592 17.125 47.5392 16.635C47.0292 16.145 46.6292 15.57 46.3392 14.91C46.0592 14.25 45.9192 13.53 45.9192 12.75C45.9192 11.97 46.0592 11.25 46.3392 10.59C46.6292 9.93 47.0342 9.355 47.5542 8.865C48.0742 8.375 48.6842 7.995 49.3842 7.725C50.0842 7.455 50.8442 7.32 51.6642 7.32C52.4942 7.32 53.2542 7.455 53.9442 7.725C54.6442 7.995 55.2492 8.375 55.7592 8.865C56.2792 9.355 56.6842 9.93 56.9742 10.59C57.2642 11.24 57.4092 11.96 57.4092 12.75C57.4092 13.53 57.2642 14.255 56.9742 14.925C56.6842 15.585 56.2792 16.16 55.7592 16.65C55.2492 17.13 54.6442 17.505 53.9442 17.775C53.2542 18.045 52.4992 18.18 51.6792 18.18ZM51.6642 16.11C52.1342 16.11 52.5642 16.03 52.9542 15.87C53.3542 15.71 53.7042 15.48 54.0042 15.18C54.3042 14.88 54.5342 14.525 54.6942 14.115C54.8642 13.705 54.9492 13.25 54.9492 12.75C54.9492 12.25 54.8642 11.795 54.6942 11.385C54.5342 10.975 54.3042 10.62 54.0042 10.32C53.7142 10.02 53.3692 9.79 52.9692 9.63C52.5692 9.47 52.1342 9.39 51.6642 9.39C51.1942 9.39 50.7592 9.47 50.3592 9.63C49.9692 9.79 49.6242 10.02 49.3242 10.32C49.0242 10.62 48.7892 10.975 48.6192 11.385C48.4592 11.795 48.3792 12.25 48.3792 12.75C48.3792 13.24 48.4592 13.695 48.6192 14.115C48.7892 14.525 49.0192 14.88 49.3092 15.18C49.6092 15.48 49.9592 15.71 50.3592 15.87C50.7592 16.03 51.1942 16.11 51.6642 16.11ZM59.2355 18V7.5H61.2455L67.4405 15.06H66.4655V7.5H68.8655V18H66.8705L60.6605 10.44H61.6355V18H59.2355ZM73.5247 18V9.48H70.1647V7.5H79.3147V9.48H75.9547V18H73.5247ZM78.7149 18L83.3949 7.5H85.7949L90.4899 18H87.9399L84.0999 8.73H85.0599L81.2049 18H78.7149ZM81.0549 15.75L81.6999 13.905H87.0999L87.7599 15.75H81.0549ZM96.4577 18.18C95.6477 18.18 94.8927 18.05 94.1927 17.79C93.5027 17.52 92.9027 17.14 92.3927 16.65C91.8827 16.16 91.4827 15.585 91.1927 14.925C90.9127 14.265 90.7727 13.54 90.7727 12.75C90.7727 11.96 90.9127 11.235 91.1927 10.575C91.4827 9.915 91.8827 9.34 92.3927 8.85C92.9127 8.36 93.5177 7.985 94.2077 7.725C94.8977 7.455 95.6527 7.32 96.4727 7.32C97.3827 7.32 98.2027 7.48 98.9327 7.8C99.6727 8.11 100.293 8.57 100.793 9.18L99.2327 10.62C98.8727 10.21 98.4727 9.905 98.0327 9.705C97.5927 9.495 97.1127 9.39 96.5927 9.39C96.1027 9.39 95.6527 9.47 95.2427 9.63C94.8327 9.79 94.4777 10.02 94.1777 10.32C93.8777 10.62 93.6427 10.975 93.4727 11.385C93.3127 11.795 93.2327 12.25 93.2327 12.75C93.2327 13.25 93.3127 13.705 93.4727 14.115C93.6427 14.525 93.8777 14.88 94.1777 15.18C94.4777 15.48 94.8327 15.71 95.2427 15.87C95.6527 16.03 96.1027 16.11 96.5927 16.11C97.1127 16.11 97.5927 16.01 98.0327 15.81C98.4727 15.6 98.8727 15.285 99.2327 14.865L100.793 16.305C100.293 16.915 99.6727 17.38 98.9327 17.7C98.2027 18.02 97.3777 18.18 96.4577 18.18ZM104.506 18V9.48H101.146V7.5H110.296V9.48H106.936V18H104.506Z" fill="white"/>
</svg>
