<?xml version="1.0" encoding="utf-8"?>
<!-- Generator: Adobe Illustrator 28.4.1, SVG Export Plug-In . SVG Version: 6.00 Build 0)  -->
<svg version="1.1" id="Layer_1" xmlns="http://www.w3.org/2000/svg" xmlns:xlink="http://www.w3.org/1999/xlink" x="0px" y="0px"
	 viewBox="0 0 2000 571.1" style="enable-background:new 0 0 2000 571.1;" xml:space="preserve">
<style type="text/css">
	.st0{fill:#FFFFFF;}
</style>
<g id="Layer_1_00000175297073460518124740000006038104175186567574_">
	<path class="st0" d="M87.2,202.6h77c55.5,0,93.5,33.4,93.5,84.8s-38,84.8-93.5,84.8h-77V202.6z M162.3,340
		c33.7,0,55.7-20.1,55.7-52.6s-22-52.6-55.7-52.6h-35.8V340H162.3z"/>
	<path class="st0" d="M396.5,335.9h-78.7l-15,36.3h-40.2l75.6-169.6h38.8l75.8,169.6h-41.2L396.5,335.9L396.5,335.9z M384.1,306.1
		l-26.9-64.9l-26.9,64.9H384.1L384.1,306.1z"/>
	<path class="st0" d="M578.4,372.2L545.7,325h-36.1v47.2h-39.2V202.6h73.4c45.3,0,73.6,23.5,73.6,61.5c0,25.4-12.8,44.1-34.9,53.5
		l38,54.5L578.4,372.2L578.4,372.2z M541.6,234.6h-32v59.1h32c24,0,36.1-11.1,36.1-29.5S565.6,234.6,541.6,234.6L541.6,234.6z"/>
	<path class="st0" d="M648.4,202.6h39.2v169.6h-39.2V202.6z"/>
	<path class="st0" d="M883.4,202.6v169.6h-32.2l-84.5-102.9v102.9h-38.8V202.6h32.5l84.3,102.9V202.6H883.4L883.4,202.6z"/>
	<path class="st0" d="M1038.2,284.8h35.8v68.8c-18.7,14-44.3,21.6-68.5,21.6c-53.3,0-92.5-36.6-92.5-87.7s39.2-87.7,93.3-87.7
		c29.8,0,54.5,10.2,71,29.3l-25.2,23.2c-12.3-13.1-26.6-19.1-43.8-19.1c-32.9,0-55.5,22-55.5,54.3s22.5,54.3,55,54.3
		c10.7,0,20.6-1.9,30.5-7.3V284.8L1038.2,284.8z"/>
	<path class="st0" d="M1165.6,355.5l13.3-29.5c14.3,10.4,35.6,17.7,55.9,17.7c23.2,0,32.7-7.8,32.7-18.2c0-31.7-98.6-9.9-98.6-72.9
		c0-28.8,23.2-52.8,71.4-52.8c21.3,0,43.1,5.1,58.9,15l-12.1,29.8c-15.7-9-32-13.3-47-13.3c-23.2,0-32.2,8.7-32.2,19.4
		c0,31.3,98.6,9.7,98.6,71.9c0,28.3-23.5,52.6-71.9,52.6C1207.7,375.1,1180.6,367.1,1165.6,355.5L1165.6,355.5z"/>
	<path class="st0" d="M1445.1,335.9h-78.7l-15,36.3h-40.2l75.6-169.6h38.8l75.8,169.6h-41.2L1445.1,335.9L1445.1,335.9z
		 M1432.7,306.1l-26.9-64.9l-26.9,64.9H1432.7L1432.7,306.1z"/>
	<path class="st0" d="M1673.3,372.2l-0.2-101.7l-49.9,83.8h-17.7l-49.7-81.6v99.5H1519V202.6h32.5l63.5,105.4l62.5-105.4h32.2
		l0.5,169.6L1673.3,372.2L1673.3,372.2z"/>
	<path class="st0" d="M1881.6,340.7v31.5h-131.3V202.6h128.1v31.5h-89.1V271h78.7v30.5h-78.7v39.2L1881.6,340.7L1881.6,340.7z"/>
</g>
</svg>
