<?xml version="1.0" encoding="UTF-8"?>
<svg xmlns="http://www.w3.org/2000/svg" version="1.1" viewBox="0 0 2000 571.1">
  <defs>
    <style>
      .cls-1 {
        fill: #768ec8;
      }

      .cls-2 {
        fill: #fff;
      }
    </style>
  </defs>
  <!-- Generator: Adobe Illustrator 28.6.0, SVG Export Plug-In . SVG Version: 1.2.0 Build 709)  -->
  <g>
    <g id="Layer_2">
      <rect class="cls-1" x="1127" y="144.11" width="785.82" height="280.52" rx="20" ry="20"/>
    </g>
    <g id="Layer_1">
      <path class="cls-2" d="M87.19,202.65h77.03c55.47,0,93.5,33.43,93.5,84.78s-38.03,84.78-93.5,84.78h-77.03v-169.56ZM162.28,339.99c33.67,0,55.71-20.1,55.71-52.56s-22.04-52.56-55.71-52.56h-35.85v105.12h35.85Z"/>
      <path class="cls-2" d="M396.51,335.87h-78.72l-15.02,36.33h-40.21l75.57-169.56h38.76l75.82,169.56h-41.18l-15.02-36.33ZM384.15,306.08l-26.89-64.92-26.89,64.92h53.77Z"/>
      <path class="cls-2" d="M578.42,372.21l-32.7-47.23h-36.09v47.23h-39.24v-169.56h73.39c45.3,0,73.64,23.5,73.64,61.52,0,25.43-12.84,44.09-34.88,53.53l38.03,54.5h-42.15ZM541.6,234.62h-31.97v59.1h31.97c23.98,0,36.09-11.14,36.09-29.55s-12.11-29.55-36.09-29.55Z"/>
      <path class="cls-2" d="M648.42,202.65h39.24v169.56h-39.24v-169.56Z"/>
      <path class="cls-2" d="M883.37,202.65v169.56h-32.22l-84.54-102.94v102.94h-38.76v-169.56h32.46l84.29,102.94v-102.94h38.76Z"/>
      <path class="cls-2" d="M1038.15,284.76h35.85v68.79c-18.65,14.05-44.33,21.56-68.55,21.56-53.29,0-92.53-36.58-92.53-87.69s39.24-87.68,93.26-87.68c29.79,0,54.5,10.17,70.97,29.31l-25.19,23.25c-12.35-13.08-26.64-19.14-43.84-19.14-32.94,0-55.47,22.04-55.47,54.26s22.53,54.26,54.98,54.26c10.66,0,20.59-1.94,30.52-7.27v-49.66Z"/>
      <path class="cls-2" d="M1165.56,355.49l13.32-29.55c14.29,10.42,35.61,17.68,55.95,17.68,23.25,0,32.7-7.75,32.7-18.17,0-31.73-98.58-9.93-98.58-72.91,0-28.82,23.25-52.8,71.45-52.8,21.32,0,43.12,5.09,58.86,15.02l-12.11,29.79c-15.74-8.96-31.97-13.32-46.99-13.32-23.25,0-32.22,8.72-32.22,19.38,0,31.25,98.58,9.69,98.58,71.94,0,28.34-23.5,52.56-71.94,52.56-26.89,0-54.02-7.99-69.03-19.62Z"/>
      <path class="cls-2" d="M1445.09,335.87h-78.72l-15.02,36.33h-40.21l75.57-169.56h38.76l75.82,169.56h-41.18l-15.02-36.33ZM1432.73,306.08l-26.89-64.92-26.89,64.92h53.77Z"/>
      <path class="cls-2" d="M1673.26,372.21l-.24-101.73-49.9,83.81h-17.68l-49.65-81.63v99.55h-36.82v-169.56h32.46l63.46,105.37,62.49-105.37h32.22l.48,169.56h-36.82Z"/>
      <path class="cls-2" d="M1881.57,340.72v31.49h-131.28v-169.56h128.13v31.49h-89.14v36.82h78.72v30.52h-78.72v39.24h92.29Z"/>
    </g>
  </g>
</svg>