<svg width="50" height="50" viewBox="0 0 50 50" fill="none" xmlns="http://www.w3.org/2000/svg">
<g clip-path="url(#clip0_40_8)">
<path fill-rule="evenodd" clip-rule="evenodd" d="M14.4982 9.3374C15.9718 9.3374 17.2987 9.46568 18.5084 9.72865C19.7209 9.98147 20.7452 10.4124 21.6145 10.9974C22.4735 11.5843 23.136 12.3658 23.626 13.3403C24.0948 14.3054 24.3291 15.517 24.3291 16.9519C24.3291 18.5049 23.9795 19.7922 23.2735 20.8293C22.5612 21.8637 21.5268 22.7043 20.139 23.3696C22.0324 23.9159 23.4295 24.8727 24.367 26.2311C25.3036 27.5995 25.7539 29.2392 25.7539 31.1705C25.7539 32.7327 25.4503 34.0697 24.8579 35.203C24.2526 36.3462 23.4323 37.2726 22.4274 37.9869C21.4123 38.7084 20.2405 39.2362 18.9311 39.5777C17.6309 39.9172 16.2939 40.0954 14.9116 40.0954H0V9.34022L14.5001 9.34115L14.4983 9.3374H14.4982ZM32.6265 11.8187H45.0965V14.8564L32.6265 14.8554V11.8177V11.8187ZM35.3975 34.7443C36.3166 35.6403 37.6342 36.0906 39.3542 36.0906C40.5843 36.0906 41.6602 35.7769 42.547 35.1522C43.4337 34.5275 43.9726 33.8658 44.1784 33.1812L49.5662 33.1821C48.697 35.8655 47.3886 37.7719 45.5929 38.9243C43.824 40.0769 41.6593 40.6619 39.1476 40.6619C37.3879 40.6619 35.8173 40.3767 34.4009 39.8203C32.9854 39.2547 31.8043 38.4648 30.8077 37.4267C29.8416 36.3923 29.0804 35.1623 28.5424 33.7163C28.0146 32.2824 27.7433 30.6888 27.7433 28.9707C27.7433 27.3014 28.0183 25.7484 28.5618 24.3126C29.1182 22.8658 29.8804 21.6283 30.8954 20.5819C31.9095 19.5365 33.1008 18.7069 34.5079 18.1016C35.905 17.4954 37.4478 17.1918 39.1567 17.1918C41.0401 17.1918 42.6899 17.5544 44.1064 18.2954C45.5127 19.0262 46.6744 20.0136 47.5823 21.2445C48.4922 22.4764 49.1353 23.8909 49.5358 25.4716C49.9362 27.0522 50.0729 28.7021 49.963 30.4332H33.8833C33.8833 32.18 34.4702 33.8519 35.3956 34.7379L35.3975 34.7443ZM42.4187 23.0484C41.6971 22.2484 40.456 21.8083 38.963 21.8083C37.9848 21.8083 37.1766 21.9734 36.5325 22.3056C35.8985 22.636 35.38 23.0457 34.9795 23.5357C34.5891 24.0238 34.3142 24.5516 34.162 25.1062C34.006 25.6432 33.9091 26.1405 33.8768 26.5715L43.8379 26.5705C43.6912 25.0093 43.1541 23.8568 42.4224 23.0466L42.4188 23.0484H42.4187ZM13.617 21.7575C14.8166 21.7575 15.8122 21.4723 16.5928 20.8975C17.3734 20.3319 17.7453 19.3944 17.7453 18.1044C17.7453 17.393 17.618 16.795 17.3642 16.3354C17.1022 15.8769 16.758 15.5142 16.3197 15.2614C15.8888 14.9993 15.4025 14.8203 14.8276 14.7234C14.2712 14.6173 13.6843 14.5684 13.0901 14.5684H6.76375V21.7538H13.6188L13.617 21.7575ZM13.9879 34.8505C14.6541 34.8505 15.288 34.7913 15.8795 34.653C16.4848 34.5164 17.0228 34.3124 17.4704 34.0006C17.9198 33.6969 18.3017 33.2983 18.573 32.7705C18.848 32.2519 18.9735 31.5894 18.9735 30.7801C18.9735 29.1995 18.5232 28.0655 17.6365 27.3808C16.7497 26.7053 15.5685 26.375 14.1041 26.375H6.76188V34.8384L13.9879 34.8375V34.8504V34.8505Z" fill="white"/>
</g>
<defs>
<clipPath id="clip0_40_8">
<rect width="50" height="50" fill="white"/>
</clipPath>
</defs>
</svg>
