<svg width="80" height="80" viewBox="0 0 80 80" fill="none" xmlns="http://www.w3.org/2000/svg">
<g clip-path="url(#clip0_24_140)">
<path d="M80 57.7489C79.4233 59.4187 78.3679 60.0546 76.8596 59.9803C75.1 59.8929 73.3349 59.9607 71.4976 59.9607V61.1562C71.4976 66.2048 71.4976 71.2534 71.4976 76.302C71.4976 78.9947 70.6566 80.0022 68.409 80.0022C49.4561 80.0022 30.5032 80.0022 11.5503 80.0022C9.39327 80.0022 8.50607 78.9641 8.50607 76.4376C8.50422 71.3583 8.50607 66.2791 8.50607 61.1999C8.50607 60.8349 8.50607 60.4699 8.50607 59.9825C7.30095 59.9825 6.16237 59.9825 5.02564 59.9825C4.16616 59.9825 3.30668 59.9978 2.44905 59.9781C1.06649 59.9454 0.0572899 58.7499 0.00738459 57.1107C-8.77958e-06 56.8965 0.00553625 56.6802 0.00553625 56.4638C0.00553625 38.8242 0.00553625 21.1846 0.00553625 3.54498C-8.77981e-06 1.0753 0.894589 0.0262342 2.99985 0.0262342C27.5754 0.0262342 52.1528 0.0349764 76.7284 7.51051e-06C78.2367 -0.00217804 79.3531 0.472087 79.9981 2.13748V57.7467L80 57.7489ZM74.1222 53.0106V6.97848H5.87957V52.9625H8.44137C8.72232 50.2044 9.45242 49.4394 11.7351 49.4394C21.0046 49.4394 30.2722 49.4394 39.5416 49.4394H40.5027C40.5027 48.7357 40.4584 48.1499 40.5138 47.5751C40.5915 46.773 40.3345 46.301 39.7634 45.8507C39.2754 45.4683 38.9427 44.8126 38.4141 44.1088H36.2663C36.1739 44.8039 36.1758 45.5775 35.3588 45.571C34.5492 45.5644 34.5474 44.8082 34.4919 44.0739C34.2091 44.0739 33.9522 44.0739 33.6953 44.0739C32.3146 44.0739 30.9357 44.0739 29.555 44.0739C28.9839 44.0739 28.5698 43.8335 28.5717 43.0795C28.5717 42.3189 29.0023 42.096 29.5642 42.0894C29.8249 42.0872 30.0855 42.0894 30.3461 42.0894C31.7194 42.0894 33.0946 42.0894 34.4956 42.0894C34.5381 41.3507 34.5622 40.6338 35.2978 40.577C36.1462 40.5114 36.1739 41.3245 36.27 42.0216H38.7487C38.8694 40.773 39.4652 40.1486 40.536 40.1486C41.3179 40.1486 42.0979 40.1595 42.8797 40.1486C43.558 40.1377 43.8907 40.5224 43.9 41.3201C43.9037 41.5539 43.9296 41.79 43.9444 42.0238H46.5062C46.5062 41.2939 46.5598 40.612 47.3083 40.5726C48.1771 40.5267 48.1013 41.4141 48.2473 42.0216H52.4948C52.4726 41.296 52.5576 40.6644 53.2378 40.5792C54.1361 40.4677 54.1102 41.3878 54.2673 42.0304H58.428C58.513 41.3354 58.5315 40.6076 59.2837 40.5726C60.1321 40.5333 60.1247 41.3594 60.2264 42.0872C60.622 42.0872 60.9824 42.0872 61.3447 42.0872C62.6459 42.0872 63.949 42.0763 65.2502 42.0981C65.7955 42.1069 66.143 42.4347 66.1208 43.1297C66.1004 43.7745 65.7603 44.0455 65.2484 44.0673C64.9877 44.0783 64.7271 44.0717 64.4665 44.0717C63.0396 44.0717 61.6145 44.0717 60.182 44.0717C60.1543 44.8323 60.1321 45.5251 59.3669 45.5688C58.5037 45.6191 58.5333 44.7711 58.4113 44.1045H54.2359C54.1324 44.7842 54.1491 45.571 53.3321 45.571C52.517 45.571 52.5151 44.8192 52.4634 44.146H48.1881C48.1512 44.8454 48.1382 45.512 47.4155 45.5688C46.5542 45.6365 46.532 44.8454 46.4766 44.1132H43.8797C44.0645 45.1579 43.4028 45.5142 42.8575 45.9906C42.6043 46.2113 42.2494 46.502 42.218 46.8014C42.1311 47.6429 42.1866 48.504 42.1866 49.446H43.0997C51.3525 49.446 59.6054 49.446 67.8601 49.446C68.2759 49.446 68.6937 49.4263 69.1095 49.4569C70.3738 49.5487 71.2961 50.5737 71.4625 52.0555C71.4958 52.3549 71.5179 52.6565 71.5512 53.0084H74.1204L74.1222 53.0106ZM42.2494 62.391C42.0812 63.2434 42.4731 64.4039 41.4177 64.4738C40.2273 64.5525 40.634 63.2521 40.414 62.4129C40.1312 62.4129 39.8503 62.4129 39.5693 62.4129C36.9133 62.4129 34.2572 62.4085 31.603 62.4129C30.3553 62.415 29.4441 61.7616 28.934 60.4284C28.08 58.1947 29.4626 55.795 31.6307 55.7688C34.2868 55.736 36.9428 55.76 39.597 55.76C39.8743 55.76 40.1516 55.76 40.4639 55.76V51.4829C40.1996 51.4676 39.9704 51.4414 39.7431 51.4414C30.2925 51.4414 20.8419 51.4392 11.3895 51.4414C10.3637 51.4414 10.1714 51.6752 10.1714 52.9079C10.1714 60.789 10.1714 68.6701 10.1714 76.5512C10.1714 77.7926 10.3895 78.0417 11.4653 78.0417C30.4977 78.0417 49.53 78.0417 68.5624 78.0417C69.6197 78.0417 69.8341 77.7839 69.8359 76.525C69.8359 68.6745 69.8359 60.824 69.8359 52.9735C69.8359 51.6403 69.6622 51.4392 68.5162 51.4392C60.0286 51.4392 51.541 51.4392 43.0534 51.4392C42.7799 51.4392 42.5063 51.4392 42.2402 51.4392V55.7185C42.4934 55.7338 42.6986 55.7557 42.9037 55.7557C49.726 55.7557 56.5464 55.76 63.3686 55.7491C65.167 55.7469 66.4368 57.102 66.4405 59.0711C66.4442 61.0513 65.2077 62.3866 63.3815 62.3866C56.6129 62.3844 49.8424 62.3866 43.0738 62.3844C42.8169 62.3844 42.5599 62.3844 42.2531 62.3844L42.2494 62.391ZM71.5327 57.8385C71.6381 57.8953 71.6843 57.9412 71.7305 57.9412C73.4494 57.9521 75.1666 57.9609 76.8855 57.9653C78.2441 57.9674 78.3198 57.88 78.3198 56.3108C78.3198 38.763 78.3198 21.213 78.3198 3.66518C78.3198 2.0435 78.2422 1.95389 76.8504 1.95389C52.297 1.95389 27.7436 1.95389 3.19208 1.95389C1.74483 1.95389 1.68383 2.02383 1.68383 3.71108C1.68383 21.1977 1.68383 38.6865 1.68383 56.1731C1.68383 56.3895 1.68938 56.6037 1.68383 56.82C1.66165 57.6418 2.00175 57.9827 2.68563 57.974C4.16985 57.9543 5.65407 57.9674 7.13829 57.9696C7.5708 57.9696 8.00517 57.9696 8.45616 57.9696V55.0126C7.42479 55.0126 6.44147 55.0148 5.46 55.0126C4.35284 55.0082 4.18649 54.8202 4.18649 53.5177C4.18649 37.8472 4.18649 22.1768 4.18649 6.50421C4.18649 5.17321 4.38611 4.93499 5.49696 4.93499C28.5144 4.93499 51.53 4.93499 74.5474 4.93499C75.6046 4.93499 75.8227 5.19507 75.8227 6.45395C75.8227 22.155 75.8246 37.8582 75.8227 53.5592C75.8227 54.7984 75.6416 55.006 74.5899 55.0104C73.5844 55.0148 72.577 55.0104 71.5383 55.0104V57.8385H71.5327ZM42.2235 60.3672H46.4766V57.797H42.2235V60.3672ZM52.456 60.4218V57.7992H48.2159V60.4218H52.456ZM40.4473 60.3825V57.7948H36.2719V60.3825H40.4473ZM58.4483 57.7948H54.2248V60.4021H58.4483V57.7948ZM60.1968 60.4524C61.3428 60.4524 62.4518 60.5114 63.5553 60.4306C64.193 60.3825 64.5774 59.8536 64.5515 59.0493C64.5275 58.2953 64.1486 57.8123 63.5405 57.7773C62.437 57.7139 61.3299 57.7598 60.1987 57.7598V60.4546L60.1968 60.4524ZM34.4901 60.4021V57.7401C33.4199 57.7401 32.3904 57.7095 31.3627 57.7511C30.7324 57.7773 30.3609 58.2538 30.3221 58.9859C30.2814 59.7727 30.64 60.3322 31.2961 60.3803C32.3478 60.4568 33.4051 60.4 34.4901 60.4V60.4021ZM40.4953 42.1003C40.5342 43.1691 40.1737 44.3012 41.3585 44.7383C42.3252 44.1351 42.4306 43.7788 42.096 42.1003H40.4953Z" fill="#3D52A1"/>
<path d="M15.0419 26.3622C17.5131 21.6086 23.352 20.8874 26.4517 26.3294C27.7973 23.8816 29.6826 22.4982 32.152 22.5113C34.5936 22.5222 36.4549 23.9078 37.7857 26.3251C40.8983 20.8765 46.7225 21.6174 49.1845 26.3469C49.336 26.1152 49.4765 25.9098 49.6096 25.6978C50.835 23.757 52.4838 22.7211 54.5114 22.5156C55.0714 22.4588 55.6019 22.5659 55.6611 23.3899C55.722 24.251 55.247 24.4542 54.6167 24.5001C52.0956 24.6859 50.1863 26.9239 50.0144 29.8919C49.9755 30.5672 49.8868 31.153 49.1863 31.1726C48.4895 31.1901 48.3545 30.6131 48.3046 29.94C48.0699 26.7272 46.0589 24.4783 43.4454 24.4914C40.8577 24.5045 38.8689 26.795 38.5953 30.0055C38.562 30.3967 38.3421 30.9016 38.0741 31.0983C37.6138 31.4349 37.1074 31.0502 36.978 30.3727C36.8856 29.8941 36.8671 29.3936 36.7562 28.9237C36.1407 26.3185 34.0724 24.5548 31.847 24.7121C29.5569 24.8739 27.7159 26.8037 27.3093 29.4744C27.2687 29.7476 27.2335 30.0208 27.2077 30.2962C27.1541 30.8841 26.8565 31.2732 26.3907 31.1486C26.0876 31.0677 25.7493 30.6962 25.6107 30.353C25.4277 29.8984 25.4628 29.328 25.339 28.8297C24.6995 26.2726 22.6422 24.5548 20.4483 24.7143C18.1267 24.8826 16.2802 26.8693 15.8995 29.5728C15.8034 30.2569 15.9309 31.1945 14.9846 31.1726C14.0345 31.1508 14.2064 30.2088 14.1214 29.5291C13.7684 26.69 11.9902 24.7099 9.54858 24.5067C8.94602 24.4564 8.50242 24.2335 8.53569 23.4423C8.57081 22.6315 9.07356 22.4654 9.65024 22.5178C11.835 22.7167 13.5632 23.8641 14.8053 26.0147C14.8626 26.1131 14.9291 26.2005 15.0419 26.3666V26.3622Z" fill="#3D52A1"/>
<path d="M63.3853 16.868C65.7382 16.9095 67.5662 19.1235 67.5496 21.9123C67.533 24.6989 65.5737 26.9478 63.2226 26.8779C60.9029 26.8101 59.0324 24.5 59.0842 21.7658C59.1359 19.0055 61.0508 16.8265 63.3871 16.868H63.3853ZM63.3649 24.8803C64.7457 24.8671 65.899 23.5034 65.9064 21.8773C65.9138 20.2185 64.7235 18.8 63.3261 18.8044C61.9047 18.8066 60.7606 20.1813 60.768 21.8773C60.7754 23.5777 61.9158 24.8956 63.3649 24.8824V24.8803Z" fill="#3D52A1"/>
<path d="M52.4302 67.09C52.6298 66.1633 52.1511 64.8673 53.3137 64.8476C54.5243 64.828 54.0401 66.1896 54.26 67.09C54.5317 67.09 54.8108 67.09 55.0881 67.09C57.8735 67.09 60.6571 67.0747 63.4426 67.0944C64.8769 67.1053 66.0099 68.209 66.2428 69.7476C66.4942 71.3999 65.7696 72.9779 64.4499 73.5024C63.9934 73.6838 63.4814 73.7275 62.9934 73.7319C60.3651 73.7538 57.7367 73.7428 55.1084 73.7428C54.8293 73.7428 54.5502 73.7428 54.2415 73.7428C54.1195 74.5668 54.3155 75.6311 53.3211 75.618C52.371 75.6049 52.5244 74.628 52.4671 73.7428C52.1584 73.7428 51.859 73.7428 51.5596 73.7428C45.0793 73.7428 38.599 73.7472 32.1187 73.7363C31.6289 73.7363 31.1169 73.721 30.6511 73.5658C29.3573 73.1352 28.5791 71.6403 28.7252 69.9902C28.8582 68.4778 29.8822 67.2758 31.1871 67.1228C31.4977 67.0856 31.81 67.0944 32.1224 67.0944C38.5768 67.0944 45.0312 67.0944 51.4856 67.0944H52.4283L52.4302 67.09ZM46.4508 71.7299V69.0876H42.2476V71.7299H46.4508ZM48.2067 71.7212H52.4357V69.1248H48.2067V71.7212ZM36.2461 71.719H40.4547V69.116H36.2461V71.719ZM58.441 69.1029H54.2323V71.6993H58.441V69.1029ZM60.1987 71.754C61.3466 71.754 62.4574 71.8152 63.559 71.7299C64.1967 71.6819 64.5775 71.1464 64.5516 70.3421C64.5276 69.5815 64.1357 69.1073 63.5332 69.0701C62.4315 69.0024 61.3225 69.0504 60.1969 69.0504V71.7518L60.1987 71.754ZM34.4661 71.7605V69.0461C33.3885 69.0461 32.3756 69.0155 31.3664 69.057C30.6862 69.0832 30.1853 69.6864 30.2168 70.4011C30.25 71.1792 30.6308 71.7037 31.2833 71.743C32.3387 71.8086 33.3978 71.7605 34.468 71.7605H34.4661Z" fill="#3D52A1"/>
<path d="M19.1655 62.4128C18.282 62.4128 17.3967 62.4325 16.5132 62.4085C14.9347 62.3648 13.7702 61.0381 13.7185 59.2547C13.6649 57.4057 14.748 55.8737 16.3339 55.7972C18.2284 55.7054 20.1304 55.7032 22.0249 55.7994C23.5572 55.8759 24.6976 57.4451 24.6533 59.1782C24.607 60.9922 23.4112 62.3669 21.8179 62.4085C20.9344 62.4303 20.0509 62.4128 19.1655 62.4128ZM19.2949 57.7511C18.465 57.7511 17.6332 57.7336 16.8033 57.7554C16.0196 57.7751 15.504 58.3455 15.5169 59.1258C15.528 59.8689 16.0252 60.448 16.7664 60.459C18.4521 60.4874 20.1396 60.4896 21.8271 60.459C22.5702 60.4437 23.0249 59.8601 23.0138 59.0777C23.0027 58.2909 22.5424 57.7729 21.7883 57.7532C20.9584 57.7314 20.1285 57.7489 19.2968 57.7511H19.2949Z" fill="#3D52A1"/>
<path d="M19.2153 67.0921C20.073 67.0921 20.9306 67.0724 21.7882 67.0965C23.4203 67.1424 24.6421 68.5564 24.6532 70.3879C24.6643 72.1713 23.4906 73.6575 21.8973 73.7187C20.0804 73.7886 18.256 73.793 16.4391 73.7165C14.783 73.6466 13.674 72.1757 13.7165 70.2874C13.759 68.4668 14.9383 67.1292 16.563 67.0943C17.4465 67.0746 18.33 67.0899 19.2135 67.0899V67.0943L19.2153 67.0921ZM19.219 71.7757C20.0508 71.7757 20.8844 71.791 21.7161 71.7714C22.522 71.7517 23.01 71.225 23.0155 70.4163C23.0211 69.5989 22.5387 69.0569 21.7346 69.0482C20.0711 69.0307 18.4058 69.0307 16.7423 69.0482C15.929 69.0569 15.4503 69.5792 15.4447 70.3966C15.4392 71.2119 15.9179 71.7473 16.7238 71.7692C17.5555 71.7932 18.3873 71.7735 19.2209 71.7757H19.219Z" fill="#3D52A1"/>
<path d="M52.4357 69.1248V71.7212H48.2067V69.1248" fill="white"/>
<path d="M58.441 69.1028V71.6992H54.2323V69.1028" fill="white"/>
<path d="M64.5516 70.3442C64.5775 71.1484 64.1967 71.6839 63.559 71.732C62.4574 71.815 61.3466 71.756 60.1987 71.756V69.0547" fill="white"/>
<path d="M21.7328 69.0481C22.5369 69.0568 23.0193 69.5989 23.0138 70.4163C23.0082 71.2227 22.5202 71.7516 21.7144 71.7713C20.8826 71.791 20.0509 71.7757 19.2173 71.7757C18.3855 71.7757 17.5519 71.7932 16.7201 71.7691C15.9143 71.7451 15.4355 71.2096 15.4411 70.3966C15.4466 69.5814 15.9254 69.0568 16.7386 69.0481" fill="white"/>
</g>
<defs>
<clipPath id="clip0_24_140">
<rect width="80" height="80" fill="white"/>
</clipPath>
</defs>
</svg>
