<svg width="40" height="40" viewBox="0 0 40 40" fill="none" xmlns="http://www.w3.org/2000/svg">
<path d="M11.0158 16.4391C12.3602 18.8763 13.9097 21.2154 15.9214 23.3484C17.9397 25.4944 20.4494 27.4475 23.6981 29.1159C23.939 29.2337 24.1669 29.2337 24.372 29.1519C24.6812 29.0341 24.9969 28.7757 25.3062 28.4649C25.5471 28.2228 25.8466 27.8368 26.1591 27.4148C27.4091 25.7627 28.9553 23.7115 31.1395 24.7387C31.1884 24.7616 31.2242 24.7878 31.273 24.8074L38.5581 29.0178C38.5809 29.0309 38.607 29.0538 38.6265 29.0669C39.5868 29.731 39.9839 30.7549 39.9937 31.9163C39.9937 33.0973 39.5608 34.4255 38.926 35.5476C38.0861 37.0296 36.8492 38.011 35.4234 38.6587C34.066 39.2869 32.5555 39.6238 31.1037 39.8397C28.8251 40.1767 26.6897 39.9608 24.5054 39.2869C22.37 38.6228 20.2183 37.5268 17.868 36.0678L17.6955 35.9565C16.618 35.2793 15.4527 34.5563 14.3101 33.7025C10.1304 30.5292 5.86934 25.9459 3.09265 20.9013C0.765178 16.6681 -0.504353 12.0979 0.189006 7.74356C0.573121 5.3554 1.592 3.18316 3.36934 1.75027C4.91882 0.49403 7.00541 -0.192974 9.70724 0.0491133C10.0165 0.0720135 10.2932 0.251943 10.4397 0.520202L15.1109 8.45674C15.7945 9.34657 15.8791 10.2299 15.5048 11.1132C15.1955 11.8361 14.5705 12.5035 13.7177 13.1251C13.467 13.341 13.1675 13.5602 12.8518 13.7892C11.8068 14.5514 10.6187 15.4315 11.0256 16.4652L11.0158 16.4391Z" fill="white"/>
</svg>
