<svg width="80" height="78" viewBox="0 0 80 78" fill="none" xmlns="http://www.w3.org/2000/svg">
<path d="M0 59.0051V2.98389C0.81409 0.688003 2.50294 -0.00388158 4.85519 1.6358e-05C28.4736 0.0448427 52.09 0.027302 75.7084 0.027302C78.5205 0.027302 80 1.49878 80 4.2936C80 22.1618 80 40.0299 80 57.8981C80 59.4241 79.6438 59.7828 78.1233 59.7828C69.1663 59.7828 60.2074 59.7828 51.2505 59.7828H50.272C50.8043 62.4178 51.3151 64.9534 51.8337 67.489C51.9824 68.2199 51.9354 69.2197 52.3933 69.5939C52.8532 69.97 53.8278 69.7303 54.5773 69.7401C55.8317 69.7595 56.2446 70.1708 56.2505 71.4396C56.2544 72.5173 56.2505 73.5971 56.2505 74.7587H58.7065V77.1578H21.3131V74.6885H23.7515C23.7515 73.4957 23.7397 72.3595 23.7554 71.2232C23.7691 70.2156 24.2329 69.7634 25.2505 69.742C25.8493 69.7303 26.4501 69.7128 27.047 69.7478C27.5421 69.7771 27.7671 69.6543 27.863 69.1086C28.1703 67.3487 28.5577 65.6024 28.91 63.8503C29.1781 62.5172 29.4423 61.1841 29.7221 59.7808H28.6947C19.7632 59.7808 10.8317 59.775 1.9002 59.7925C1.12329 59.7925 0.471624 59.658 0.00391389 59.0032L0 59.0051ZM8.79061 8.80157V43.5498H18.7495V42.5772C18.7495 35.2374 18.7436 27.8995 18.7632 20.5597C18.7632 20.0315 18.8708 19.4702 19.0724 18.983C20.1566 16.3772 21.2896 13.789 22.4012 11.193C22.6673 10.5712 22.9804 9.99239 23.7691 10.006C24.5519 10.0197 24.8513 10.6102 25.1155 11.23C26.0607 13.446 26.908 15.7126 27.998 17.8545C28.9569 19.7392 28.6947 21.6648 28.7397 23.6293H26.2172V21.2302H25.0489V43.5381H26.274V33.6899H28.7867V43.5829H33.7084C33.7084 41.2363 33.7906 38.958 33.6791 36.6875C33.6047 35.1419 32.7495 33.9199 31.4971 32.9805C30.3112 32.0898 28.9785 31.55 27.5538 31.1836C26.2309 30.8425 25.9256 30.1038 26.6243 28.9422C30.2348 22.9414 33.8493 16.9444 37.4697 10.9493C38.2016 9.73903 39.2798 9.73318 40.0157 10.9259C40.6693 11.9842 41.3033 13.0562 41.9472 14.1223C44.8787 18.9869 47.8102 23.8515 50.7417 28.7181C51.6223 30.1779 51.3386 30.8405 49.6712 31.2771C49.1703 31.4096 48.6654 31.55 48.1898 31.7507C45.1429 33.0351 43.5714 34.9158 43.7417 38.2135C43.8004 39.3264 43.7515 40.4431 43.7515 41.5579V43.5361H48.7789V33.6899H51.2916V43.5517H58.6967V38.6013H53.7984V36.0989H58.7123V29.8894H53.8121V27.387H58.7006V21.1503H53.7965V18.6751H58.6888V13.7637H51.227V23.6391H48.7534C48.7534 23.376 48.7534 23.1499 48.7534 22.9238C48.7534 19.6047 48.7534 16.2856 48.7534 12.9646C48.7534 11.6198 49.1585 11.23 50.544 11.228C53.4873 11.228 56.4286 11.228 59.3718 11.228C60.8943 11.228 61.2544 11.5866 61.2544 13.1068C61.2544 22.9608 61.2544 32.8168 61.2544 42.6708V43.5537H71.2035V8.80157M2.5362 57.2413H77.4364V46.1302H2.5362V57.2413ZM4.36595 2.51809C2.85127 2.51809 2.50098 2.8767 2.50098 4.41249C2.50098 17.1705 2.50098 29.9304 2.50098 42.6883C2.50098 42.967 2.50098 43.2438 2.50098 43.5517H6.25049C6.25049 43.199 6.25049 42.893 6.25049 42.585C6.25049 31.1231 6.25049 19.6612 6.25049 8.19739C6.25049 6.57585 6.58121 6.25037 8.22113 6.25037C29.4168 6.25037 50.6125 6.25037 71.8082 6.25037C73.4266 6.25037 73.7515 6.57974 73.7515 8.22272C73.7515 19.6846 73.7515 31.1465 73.7515 42.6104V43.5595H77.501V42.739C77.501 29.9538 77.501 17.1685 77.501 4.3852C77.501 2.87085 77.1409 2.51614 75.6086 2.51614M37.5049 16.0537C37.4501 16.0342 37.3933 16.0167 37.3386 15.9972C34.7221 20.3395 32.1057 24.6837 29.4481 29.0923C32.8258 30.4001 35.4521 32.3802 36.1644 36.0969H41.3386C42.0744 32.3646 44.681 30.3981 48.0548 29.0943C45.3973 24.6857 42.7769 20.3375 40.1566 15.9894C40.0998 16.0089 40.0431 16.0284 39.9863 16.0478V26.1182H37.5069V16.0537H37.5049ZM30.2857 69.7011H49.7143C49.1057 66.6568 48.4892 63.6651 47.9217 60.6656C47.7945 59.9971 47.5773 59.7535 46.8356 59.7613C42.5656 59.8061 38.2975 59.7828 34.0274 59.7828C32.2935 59.7828 32.2818 59.7808 31.9452 61.4257C31.3875 64.164 30.8454 66.9043 30.2857 69.6991V69.7011ZM53.7123 72.2835H26.3112V74.6826H53.7123V72.2835ZM21.3033 21.2243V43.5654H22.4599V21.2243H21.3033ZM25.5851 18.6653C24.9824 17.2621 24.407 15.9231 23.7515 14.399C23.0959 15.9212 22.5205 17.2601 21.9159 18.6653H25.5851ZM41.2035 39.8272V38.6696H36.3092V39.8272H41.2035ZM41.1918 43.5673V42.4174H36.2935V43.5673H41.1918Z" fill="#3D52A1"/>
</svg>
