<svg width="80" height="80" viewBox="0 0 80 80" fill="none" xmlns="http://www.w3.org/2000/svg">
<g clip-path="url(#clip0_24_118)">
<path d="M80.0002 8.28076V32.9686C78.9377 35.5173 78.0423 36.1122 75.2683 36.1122C72.847 36.1122 70.4257 36.1122 68.0044 36.1122C67.7289 36.1122 67.4513 36.1122 67.1299 36.1122C67.1132 36.4629 67.0902 36.7196 67.0902 36.9743C67.0881 39.2663 67.109 41.5562 67.0735 43.8481C67.0652 44.4451 67.2551 44.6748 67.8208 44.8814C73.4565 46.9375 77.2616 50.8222 79.1506 56.5187C79.5556 57.7419 79.7226 59.0445 80.0002 60.3115V63.593C79.9021 64.1002 79.7935 64.6054 79.7059 65.1147C78.2656 73.5896 70.7284 79.9478 62.0619 79.9979C53.3412 80.048 45.7517 73.8046 44.205 65.2838C44.0088 64.1962 43.9253 63.0899 43.7876 61.9752H38.7238C38.7238 62.305 38.7238 62.5868 38.7238 62.8665C38.7238 67.1353 38.7259 71.4061 38.7238 75.6749C38.7217 78.4136 37.1437 79.9979 34.4219 79.9979C24.3736 79.9979 14.3253 79.9979 4.27705 79.9979C1.58234 79.9979 0.00434367 78.424 0.00434367 75.7375C0.00225637 70.4 0.00434367 65.0646 0.00434367 59.7271C0.00434367 56.6294 -0.00609284 53.5316 0.00851827 50.4339C0.0189548 48.1753 1.58861 46.5534 3.85124 46.4428C4.26035 46.4219 4.67155 46.4407 5.16207 46.4407V45.4471C5.16207 31.7808 5.16207 18.1125 5.16624 4.44618C5.16624 4.00574 5.16624 3.55695 5.25182 3.12694C5.58161 1.43614 6.74215 0.526027 8.28467 0C26.8783 0 45.4699 0 64.0636 0C64.1471 0.0521853 64.2223 0.12107 64.312 0.154468C66.153 0.832877 67.0506 2.08741 67.086 4.04958C67.0923 4.40444 67.086 4.7593 67.086 5.1559C70.0124 5.1559 72.8219 5.15173 75.6314 5.16008C76.0447 5.16008 76.4685 5.17052 76.8734 5.24775C78.5704 5.57339 79.4637 6.74651 79.9981 8.28076H80.0002ZM19.3599 49.0437C14.3629 49.0437 9.36589 49.0437 4.3668 49.0437C2.97457 49.0437 2.58842 49.4153 2.58842 50.7888C2.58425 59.0925 2.58425 67.3962 2.58842 75.6979C2.58842 77.0129 2.99545 77.4095 4.32506 77.4095C14.3462 77.4116 24.3673 77.4116 34.3864 77.4095C35.7243 77.4095 36.1147 77.0192 36.1167 75.6979C36.1167 67.3941 36.1167 59.0904 36.1167 50.7888C36.1167 49.4132 35.741 49.0437 34.3488 49.0437C29.3518 49.0437 24.3548 49.0437 19.3557 49.0437H19.3599ZM60.6655 7.74429C55.6685 7.74429 50.6715 7.74429 45.6724 7.74429C44.2447 7.74429 43.8857 8.11376 43.8857 9.55616C43.8857 16.9477 43.8857 24.3413 43.8857 31.7328C43.8857 33.1836 44.2718 33.5614 45.7517 33.5635C48.9787 33.5635 52.2077 33.576 55.4347 33.5509C55.9628 33.5468 56.2863 33.7117 56.589 34.1375C57.4657 35.3649 58.3862 36.561 59.2962 37.7654C60.2292 39.0033 61.0746 38.9949 62.0202 37.7404C62.9114 36.5547 63.8152 35.3795 64.6773 34.173C64.9946 33.7284 65.3348 33.5447 65.8963 33.5489C69.0982 33.5781 72.3001 33.5635 75.4999 33.5614C77.0529 33.5614 77.4182 33.1919 77.4182 31.6159C77.4182 24.3016 77.4182 16.9873 77.4182 9.67306C77.4182 8.07619 77.0863 7.74221 75.502 7.74221C70.5572 7.74221 65.6103 7.74221 60.6655 7.74221V7.74429ZM23.284 46.4344C23.6013 46.4344 23.881 46.4344 24.1607 46.4344C27.5713 46.4344 30.9799 46.4303 34.3905 46.4344C37.1249 46.4386 38.7196 48.0251 38.7238 50.7408C38.73 53.3187 38.7238 55.8946 38.7259 58.4725C38.7259 58.7481 38.7488 59.0257 38.7614 59.3242H44.061C44.8897 54.4418 47.1899 50.4506 51.1411 47.4844C55.0903 44.5182 59.5571 43.4327 64.4581 44.0506V38.8237C64.2118 39.1348 64.0511 39.3372 63.8925 39.5418C62.0932 41.8755 59.1939 41.8839 57.4114 39.5522C56.6683 38.5816 55.9231 37.611 55.2176 36.6132C54.9442 36.227 54.6436 36.0997 54.1803 36.1018C51.3436 36.1205 48.5028 36.0204 45.6703 36.1372C43.0675 36.2437 41.2244 34.3734 41.2578 31.7328C41.3308 25.7733 41.2807 19.8116 41.2807 13.85C41.2807 13.5515 41.2807 13.253 41.2807 12.9753H23.284V46.4324V46.4344ZM61.9534 77.4116C70.5155 77.3887 77.4432 70.4355 77.4098 61.8959C77.3743 53.3396 70.3965 46.399 61.8761 46.4428C53.3725 46.4866 46.4426 53.444 46.4426 61.9335C46.4426 70.4626 53.4288 77.4325 61.9534 77.4116ZM20.5956 46.3948V12.9816H7.8025V46.3948H20.5956ZM41.2473 10.2805C41.2599 10.0592 41.2891 9.90476 41.2766 9.75238C41.0323 7.16399 42.7794 5.05988 45.9417 5.12251C51.8237 5.2394 57.7099 5.1559 63.5961 5.1559H64.4853C64.6272 2.87436 64.3579 2.58839 62.1851 2.58839C45.0254 2.58839 27.8656 2.58839 10.7059 2.58839C8.73553 2.58839 7.75032 3.56043 7.75032 5.5045C7.75032 7.08467 7.75032 8.66275 7.75032 10.2784H41.2473V10.2805Z" fill="#3D52A1"/>
<path d="M20.6392 74.8065H18.0781V73.0781C18.0781 71.7255 18.0405 70.3708 18.0885 69.0181C18.1324 67.8137 18.0447 66.9056 16.8445 66.0373C14.7071 64.4905 15.0995 61.255 17.406 59.9379C17.9466 59.6289 18.0969 59.3033 18.0885 58.723C18.0572 56.6669 18.076 54.6108 18.076 52.5547C18.076 52.2729 18.076 51.9911 18.076 51.655H20.5996C20.6121 51.9431 20.635 52.2186 20.635 52.4942C20.6371 54.6275 20.6497 56.7629 20.6267 58.8963C20.6225 59.3617 20.7332 59.6248 21.1819 59.8606C22.5094 60.562 23.215 61.7289 23.215 63.2193C23.215 64.7097 22.522 65.8807 21.1882 66.5821C20.7436 66.8159 20.6204 67.0726 20.6246 67.5444C20.6455 69.9366 20.635 72.3308 20.635 74.8065H20.6392ZM20.633 63.2485C20.6455 62.5346 20.0673 61.9439 19.3597 61.9439C18.673 61.9439 18.1178 62.4803 18.0927 63.1692C18.0656 63.8977 18.6062 64.4926 19.318 64.5156C20.0151 64.5406 20.6204 63.9561 20.633 63.2485Z" fill="#3D52A1"/>
<path d="M10.3217 74.8066H7.75224C7.75224 74.0531 7.7919 73.3287 7.73137 72.6128C7.70841 72.3414 7.52055 71.9761 7.29721 71.8425C4.44804 70.1559 4.42508 66.5968 7.2993 64.977C7.74389 64.7265 7.75433 64.4218 7.75433 64.0252C7.75015 60.2261 7.75224 56.4249 7.75224 52.6258C7.75224 52.319 7.75224 52.0121 7.75224 51.6531H10.3217V52.4943C10.3217 56.3205 10.328 60.1467 10.3134 63.973C10.3134 64.4823 10.4052 64.7829 10.9229 65.0584C12.2107 65.7473 12.8933 66.9079 12.8954 68.3753C12.8954 69.8386 12.2358 71.0013 10.9437 71.7027C10.4511 71.9698 10.2779 72.2475 10.3113 72.7798C10.353 73.4269 10.3217 74.0781 10.3217 74.8066ZM10.3154 68.3524C10.2967 67.6447 9.68926 67.0769 8.98166 67.1083C8.29494 67.1375 7.76685 67.6927 7.76685 68.3858C7.76685 69.1059 8.34503 69.6862 9.05263 69.6758C9.75188 69.6653 10.3342 69.0579 10.3154 68.3544V68.3524Z" fill="#3D52A1"/>
<path d="M28.4019 51.6362H30.9588C30.9588 53.0891 30.9964 54.5106 30.9421 55.93C30.915 56.6481 31.107 57.0489 31.7666 57.4518C34.2046 58.938 34.1294 62.4991 31.6434 63.9206C31.0715 64.2484 30.94 64.597 30.9463 65.1981C30.9734 68.3731 30.9588 71.548 30.9588 74.7856H28.4019V73.936C28.4019 70.9677 28.3935 67.9994 28.4102 65.0332C28.4123 64.5531 28.3246 64.2609 27.8341 63.9979C26.517 63.2965 25.8115 62.1296 25.8136 60.6288C25.8178 59.1613 26.5087 58.0133 27.7986 57.3203C28.3038 57.0489 28.4227 56.7525 28.4144 56.2348C28.3852 54.7277 28.4039 53.2206 28.4039 51.6383L28.4019 51.6362ZM29.7148 61.9105C30.4432 61.8938 30.9797 61.3197 30.9505 60.5891C30.9233 59.8982 30.3785 59.3743 29.6855 59.3701C28.9571 59.368 28.4081 59.9232 28.4144 60.6559C28.4206 61.3886 28.98 61.9272 29.7148 61.9084V61.9105Z" fill="#3D52A1"/>
<path d="M57.1503 20.6342C54.2719 19.1104 51.5396 17.6638 48.8094 16.2193C48.3043 15.9521 47.7908 15.6954 47.2941 15.4156C46.5113 14.9752 46.2546 14.2717 46.6073 13.5954C46.958 12.9254 47.7032 12.7229 48.4984 13.1404C51.6753 14.8061 54.8918 16.4072 57.9936 18.2044C59.3921 19.0143 60.5129 19.1834 61.8467 18.1982C62.6315 17.6179 63.5771 17.2505 64.4496 16.7871C64.4955 16.762 64.5331 16.7265 64.6312 16.6535C64.3306 14.9961 64.6374 13.4409 65.7855 12.1134C66.6371 11.126 67.7246 10.5645 69.0062 10.3662C71.3982 9.99672 73.8195 11.5351 74.5855 13.9169C75.0698 15.4198 74.8715 16.8497 74.0616 18.1898C73.2705 19.5007 72.0494 20.2355 70.3587 20.655C71.8491 20.9974 72.9157 21.586 73.7151 22.5984C75.1658 24.4353 75.2159 26.9632 73.8445 28.8419C72.4627 30.7351 69.9621 31.4616 67.783 30.6057C65.6414 29.7624 64.2847 27.5665 64.5706 25.2578C64.6395 24.6963 64.4642 24.4834 64.0217 24.26C62.8382 23.663 61.6672 23.0389 60.5088 22.3959C60.1017 22.1705 59.7782 22.1705 59.3607 22.3959C55.8541 24.2746 52.3349 26.1261 48.8178 27.9839C48.5673 28.1175 48.3085 28.2574 48.035 28.3263C47.436 28.4787 46.9455 28.2636 46.6386 27.7355C46.3109 27.1719 46.4028 26.6229 46.8703 26.1742C47.0519 25.9988 47.2982 25.884 47.5257 25.7608C50.4417 24.2099 53.3577 22.6652 56.2736 21.1164C56.522 20.9849 56.7662 20.845 57.1482 20.6342H57.1503ZM72.2415 15.4428C72.2227 14.0066 71.0789 12.9003 69.6365 12.9191C68.2067 12.9379 67.0712 14.1047 67.1005 15.5242C67.1297 16.9415 68.3153 18.0917 69.72 18.0646C71.1436 18.0374 72.2624 16.8747 72.2436 15.4407L72.2415 15.4428ZM69.6887 23.2455C68.2526 23.2393 67.1046 24.3706 67.0984 25.7942C67.0921 27.2053 68.2547 28.3805 69.6637 28.3931C71.0747 28.4035 72.2331 27.2471 72.2415 25.8214C72.2477 24.3811 71.131 23.2518 69.6887 23.2455ZM62.6921 20.6467C63.8317 21.25 64.8503 21.7885 65.6811 22.2289C66.7957 21.6194 67.7496 21.0976 68.6597 20.6008C68.2422 20.4275 67.5826 20.3461 67.234 19.9725C66.0881 18.7451 65.0528 19.2189 63.9549 19.9725C63.6167 20.2042 63.2285 20.3649 62.6942 20.6488L62.6921 20.6467Z" fill="#3D52A1"/>
<path d="M38.6652 28.3657H25.8575V15.5344H38.6652V28.3657ZM28.4521 18.1082V25.7565H36.0561V18.1082H28.4521Z" fill="#3D52A1"/>
<path d="M38.6819 31.0232V43.8128H25.8658V31.0232H38.6819ZM28.4374 41.2223H36.0707V33.6304H28.4374V41.2223Z" fill="#3D52A1"/>
<path d="M52.9131 61.9229C52.9131 59.059 52.9069 56.1951 52.9152 53.3311C52.9194 51.776 53.7585 51.2458 55.1382 51.9326C60.9326 54.8236 66.7206 57.7251 72.5171 60.6141C73.0932 60.9001 73.5482 61.2675 73.544 61.9522C73.5378 62.6389 73.0639 62.9917 72.4941 63.2756C66.7019 66.1625 60.9138 69.0619 55.1215 71.9529C53.7961 72.6146 52.9236 72.0782 52.9173 70.5961C52.9069 67.7051 52.9152 64.8161 52.9152 61.925L52.9131 61.9229ZM55.4972 68.8761C60.1561 66.5465 64.698 64.2734 69.3757 61.9334C64.6897 59.5892 60.1289 57.3098 55.4972 54.9927V68.8761Z" fill="#3D52A1"/>
<path d="M10.353 18.075V15.5283H18.074C18.074 16.2652 18.0969 16.9874 18.0531 17.7034C18.0447 17.837 17.7609 18.0583 17.6043 18.0603C15.2185 18.0833 12.8307 18.077 10.3551 18.077L10.353 18.075Z" fill="#3D52A1"/>
<path d="M10.3593 23.2371V20.6821H18.0718C18.0718 21.4106 18.0906 22.1517 18.053 22.8885C18.0468 23.0117 17.7984 23.2225 17.6585 23.2225C15.2477 23.2434 12.8348 23.2371 10.3593 23.2371Z" fill="#3D52A1"/>
<path d="M18.0197 28.3532H10.3593V25.8567H18.0197V28.3532Z" fill="#3D52A1"/>
<path d="M18.0134 43.8419H10.3634V41.3433H18.0134V43.8419Z" fill="#3D52A1"/>
<path d="M10.3613 38.663V36.1602H18.0092V38.663H10.3613Z" fill="#3D52A1"/>
<path d="M10.3613 33.501V31.0002H18.0092V33.501H10.3613Z" fill="#3D52A1"/>
<path d="M10.3572 7.74426V5.19971H12.9141C12.9141 5.9303 12.9371 6.62541 12.8953 7.31425C12.887 7.46455 12.6469 7.71504 12.5029 7.72339C11.812 7.76722 11.117 7.74217 10.3593 7.74217L10.3572 7.74426Z" fill="#3D52A1"/>
<path d="M20.6997 5.19141H23.1899V7.67542H20.6997V5.19141Z" fill="#3D52A1"/>
<path d="M18.0384 5.2207V7.69011H15.5211V5.2207H18.0384Z" fill="#3D52A1"/>
<path d="M20.633 63.2485C20.6226 63.9561 20.0152 64.5385 19.318 64.5155C18.6063 64.4905 18.0656 63.8956 18.0928 63.1692C18.1178 62.4803 18.673 61.9438 19.3598 61.9438C20.0674 61.9438 20.6455 62.5367 20.633 63.2485Z" fill="white"/>
<path d="M10.3154 68.3522C10.3342 69.0557 9.75187 69.6631 9.05262 69.6736C8.34503 69.684 7.76685 69.1037 7.76685 68.3836C7.76685 67.6905 8.29493 67.1353 8.98166 67.1061C9.68925 67.0768 10.2967 67.6446 10.3154 68.3502V68.3522Z" fill="white"/>
<path d="M29.7149 61.9104C28.9801 61.9271 28.4207 61.3885 28.4145 60.6579C28.4082 59.9253 28.9572 59.3679 29.6856 59.3721C30.3786 59.3742 30.9234 59.9002 30.9506 60.5911C30.9798 61.3217 30.4433 61.8958 29.7149 61.9125V61.9104Z" fill="white"/>
<path d="M62.6922 20.6467C63.2286 20.3628 63.6147 20.2021 63.9529 19.9704C65.0508 19.2168 66.0882 18.745 67.232 19.9704C67.5806 20.344 68.2402 20.4254 68.6577 20.5987C67.7476 21.0955 66.7958 21.6173 65.6791 22.2268C64.8483 21.7864 63.8276 21.2478 62.6901 20.6446L62.6922 20.6467Z" fill="white"/>
</g>
<defs>
<clipPath id="clip0_24_118">
<rect width="80" height="80" fill="white"/>
</clipPath>
</defs>
</svg>
